<svg width="133" height="16" viewBox="0 0 133 16" fill="none" xmlns="http://www.w3.org/2000/svg">
<g id="HORROR FEST">
<path id="Vector" d="M121.022 2.07699V0.0856323H133V2.07699H129.08V15.0743H124.942V2.07699H121.022Z" fill="white"/>
<path id="Vector_2" d="M113.378 10.7919V13.0616C113.378 13.133 113.45 13.1686 113.596 13.1686H115.338C115.483 13.1686 115.556 13.133 115.556 13.0616V9.20735L112.115 8.45791C111.853 8.41509 111.49 8.34371 111.026 8.24379C110.561 8.12959 110.14 7.96542 109.763 7.7513C109.414 7.53718 109.24 7.24454 109.24 6.87339V1.99136C109.24 1.39181 109.617 0.913597 110.372 0.556724C111.127 0.185575 112.115 0 113.334 0H115.599C116.819 0 117.806 0.185575 118.561 0.556724C119.316 0.913597 119.693 1.39181 119.693 1.99136V5.1604L115.556 4.9891V2.09842C115.556 2.02704 115.483 1.99136 115.338 1.99136H113.596C113.45 1.99136 113.378 2.02704 113.378 2.09842V6.57362L116.819 7.32305C117.08 7.38015 117.443 7.45866 117.908 7.55859C118.372 7.65851 118.779 7.81554 119.127 8.02966C119.505 8.24379 119.693 8.53642 119.693 8.90757V13.1686C119.693 13.7682 119.316 14.2535 118.561 14.6247C117.806 14.9816 116.819 15.16 115.599 15.16H113.334C112.115 15.16 111.127 14.9816 110.372 14.6247C109.617 14.2535 109.24 13.7682 109.24 13.1686V10.7919H113.378Z" fill="white"/>
<path id="Vector_3" d="M107.94 13.083L107.592 15.0743H98.0532V2.07699H97.3999L97.8355 0.0856323H107.94L107.505 2.07699H102.191V6.5736H107.069L106.634 8.56496H102.191V13.083H107.94Z" fill="white"/>
<path id="Vector_4" d="M95.4572 6.5736L95.0217 8.56496H90.579V15.0743H86.4412V2.07699H85.7878L86.2234 0.0856323H96.3283L95.8928 2.07699H90.579V6.5736H95.4572Z" fill="white"/>
<path id="Vector_5" d="M64.9934 2.07699L65.429 0.0856323H72.3108C73.5303 0.0856323 74.5176 0.271207 75.2726 0.642356C76.0275 0.999229 76.405 1.47744 76.405 2.07699V8.77908C76.405 9.09313 76.2744 9.37863 76.013 9.63558C75.7517 9.87825 75.4032 10.0852 74.9677 10.2565L77.7553 15.0743H73.5739L71.0912 10.7704H69.7845V15.0743H65.6467V2.07699H64.9934ZM72.0494 2.07699H69.7845V8.77908H72.0494C72.1946 8.77908 72.2672 8.74339 72.2672 8.67202V2.18405C72.2672 2.11268 72.1946 2.07699 72.0494 2.07699Z" fill="white"/>
<path id="Vector_6" d="M63.6952 13.1686C63.6952 13.7682 63.3177 14.2535 62.5628 14.6247C61.8078 14.9816 60.8205 15.16 59.601 15.16H56.465C55.2454 15.16 54.2581 14.9816 53.5032 14.6247C52.7482 14.2535 52.3707 13.7682 52.3707 13.1686V1.99136C52.3707 1.39181 52.7482 0.913597 53.5032 0.556724C54.2581 0.185575 55.2454 0 56.465 0H59.601C60.8205 0 61.8078 0.185575 62.5628 0.556724C63.3177 0.913597 63.6952 1.39181 63.6952 1.99136V13.1686ZM56.7263 1.99136C56.5811 1.99136 56.5085 2.02704 56.5085 2.09842V13.0616C56.5085 13.133 56.5811 13.1686 56.7263 13.1686H59.3397C59.4848 13.1686 59.5574 13.133 59.5574 13.0616V2.09842C59.5574 2.02704 59.4848 1.99136 59.3397 1.99136H56.7263Z" fill="white"/>
<path id="Vector_7" d="M39.1748 2.07699L39.6104 0.0856323H46.4922C47.7117 0.0856323 48.699 0.271207 49.454 0.642356C50.2089 0.999229 50.5864 1.47744 50.5864 2.07699V8.77908C50.5864 9.09313 50.4558 9.37863 50.1944 9.63558C49.9331 9.87825 49.5846 10.0852 49.1491 10.2565L51.9366 15.0743H47.7553L45.2726 10.7704H43.9659V15.0743H39.8281V2.07699H39.1748ZM46.2308 2.07699H43.9659V8.77908H46.2308C46.376 8.77908 46.4486 8.74339 46.4486 8.67202V2.18405C46.4486 2.11268 46.376 2.07699 46.2308 2.07699Z" fill="white"/>
<path id="Vector_8" d="M25.9889 2.07699L26.4244 0.0856323H33.3063C34.5258 0.0856323 35.5131 0.271207 36.2681 0.642356C37.023 0.999229 37.4005 1.47744 37.4005 2.07699V8.77908C37.4005 9.09313 37.2698 9.37863 37.0085 9.63558C36.7472 9.87825 36.3987 10.0852 35.9632 10.2565L38.7507 15.0743H34.5694L32.0867 10.7704H30.78V15.0743H26.6422V2.07699H25.9889ZM33.0449 2.07699H30.78V8.77908H33.0449C33.1901 8.77908 33.2627 8.74339 33.2627 8.67202V2.18405C33.2627 2.11268 33.1901 2.07699 33.0449 2.07699Z" fill="white"/>
<path id="Vector_9" d="M24.6907 13.1686C24.6907 13.7682 24.3132 14.2535 23.5583 14.6247C22.8033 14.9816 21.816 15.16 20.5965 15.16H17.4605C16.2409 15.16 15.2536 14.9816 14.4987 14.6247C13.7437 14.2535 13.3662 13.7682 13.3662 13.1686V1.99136C13.3662 1.39181 13.7437 0.913597 14.4987 0.556724C15.2536 0.185575 16.2409 0 17.4605 0H20.5965C21.816 0 22.8033 0.185575 23.5583 0.556724C24.3132 0.913597 24.6907 1.39181 24.6907 1.99136V13.1686ZM17.7218 1.99136C17.5766 1.99136 17.504 2.02704 17.504 2.09842V13.0616C17.504 13.133 17.5766 13.1686 17.7218 13.1686H20.3351C20.4803 13.1686 20.5529 13.133 20.5529 13.0616V2.09842C20.5529 2.02704 20.4803 1.99136 20.3351 1.99136H17.7218Z" fill="white"/>
<path id="Vector_10" d="M4.79114 0.0856323V6.55219H7.27382V0.0856323H11.4116V15.0743H7.27382V8.54354H4.79114V15.0743H0.653337V2.07699H0L0.435558 0.0856323H4.79114Z" fill="white"/>
</g>
</svg>
