<svg width="115" height="16" viewBox="0 0 115 16" fill="none" xmlns="http://www.w3.org/2000/svg">
<g id="ANIMATION">
<path id="Vector" d="M110.744 0.0856323H115V15.0743H110.744L105.816 5.90981V15.0743H101.56V2.07699H100.888L101.336 0.0856323H106.04L111.013 9.61416L110.744 0.0856323Z" fill="white"/>
<path id="Vector_2" d="M99.5527 13.1686C99.5527 13.7682 99.1644 14.2535 98.3879 14.6247C97.6114 14.9816 96.5959 15.16 95.3415 15.16H92.1159C90.8615 15.16 89.846 14.9816 89.0695 14.6247C88.2929 14.2535 87.9047 13.7682 87.9047 13.1686V1.99136C87.9047 1.39181 88.2929 0.913597 89.0695 0.556724C89.846 0.185575 90.8615 0 92.1159 0H95.3415C96.5959 0 97.6114 0.185575 98.3879 0.556724C99.1644 0.913597 99.5527 1.39181 99.5527 1.99136V13.1686ZM92.3847 1.99136C92.2354 1.99136 92.1607 2.02704 92.1607 2.09842V13.0616C92.1607 13.133 92.2354 13.1686 92.3847 13.1686H95.0727C95.222 13.1686 95.2967 13.133 95.2967 13.0616V2.09842C95.2967 2.02704 95.222 1.99136 95.0727 1.99136H92.3847Z" fill="white"/>
<path id="Vector_3" d="M81.8723 15.0743V2.07699H81.2003L81.6483 0.0856323H86.1283V15.0743H81.8723Z" fill="white"/>
<path id="Vector_4" d="M67.9546 2.07699V0.0856323H80.2747V2.07699H76.2426V15.0743H71.9866V2.07699H67.9546Z" fill="white"/>
<path id="Vector_5" d="M60.0812 15.0743H55.8252L58.2444 2.07699H57.438L57.886 0.0856323H66.0844L68.8621 15.0743H64.606L64.1132 12.5048H60.574L60.0812 15.0743ZM60.9324 10.5135H63.7548L62.366 3.06196L60.9324 10.5135Z" fill="white"/>
<path id="Vector_6" d="M36.5034 15.0743V2.07699H35.8314L36.2794 0.0856323H43.2683L45.4187 8.15812L47.6139 0.0856323H54.4683V15.0743H50.2123V3.42597L46.8971 12.9331H43.9851L40.7594 3.68292V15.0743H36.5034Z" fill="white"/>
<path id="Vector_7" d="M30.0284 15.0743V2.07699H29.3564L29.8044 0.0856323H34.2845V15.0743H30.0284Z" fill="white"/>
<path id="Vector_8" d="M23.7686 0.0856323H28.0247V15.0743H23.7686L18.8406 5.90981V15.0743H14.5846V2.07699H13.9126L14.3606 0.0856323H19.0646L24.0374 9.61416L23.7686 0.0856323Z" fill="white"/>
<path id="Vector_9" d="M4.25602 15.0743H0L2.41921 2.07699H1.61281L2.06081 0.0856323H10.2592L13.0369 15.0743H8.78084L8.28804 12.5048H4.74882L4.25602 15.0743ZM5.10722 10.5135H7.92964L6.54083 3.06196L5.10722 10.5135Z" fill="white"/>
</g>
</svg>
